# Hierarchical Translation and Rotation (.htr) file
# Generated by EVaRT
[Header]
FileType htr
DataType HTRS
FileVersion 1
NumSegments 23
NumFrames 5
DataFrameRate 120
EulerRotationOrder ZYX
CalibrationUnits mm
RotationUnits Degrees
GlobalAxisofGravity Y
BoneLengthAxis Y
ScaleFactor 1
[SegmentNames&Hierarchy]
#CHILD            PARENT
DaveRoot          GLOBAL
Spine1            DaveRoot
Spine2            Spine1
Spine3            Spine2
Spine4            Spine3
Neck              Spine4
Head              Neck
LClavicle         Spine4
LUpperArm         LClavicle
LLowerArm         LUpperArm
LHand             LLowerArm
RClavicle         Spine4
RUpperArm         RClavicle
RLowerArm         RUpperArm
RHand             RLowerArm
RUpperLeg         DaveRoot
RLowerLeg         RUpperLeg
RFoot             RLowerLeg
RToes             RFoot
LUpperLeg         DaveRoot
LLowerLeg         LUpperLeg
LFoot             LLowerLeg
LToes             LFoot
[BasePosition]
#SegmentName      Tx   Ty   Tz   Rx   Ry   Rz   BoneLength
DaveRoot          209.518790	1014.822220	-351.309218	15.931515	2.618173	-0.612188	100.000000
Spine1            0.000000	100.000000	0.000000	-16.793488	0.293500	-0.473802	100.000000
Spine2            0.000000	100.000000	0.000000	4.672625	0.349043	-0.357343	100.000000
Spine3            0.000000	100.000000	0.000000	10.998894	0.386292	-0.316706	100.000000
Spine4            0.000000	100.000000	0.000000	12.138707	1.462162	1.217268	100.000000
Neck              0.000000	100.000000	0.000000	12.810480	14.955418	1.620949	80.000000
Head              0.000000	80.000000	0.000000	-44.031424	-2.973179	-2.367844	200.000000
LClavicle         0.000000	100.000000	0.000000	-0.941684	-2.086145	-99.536471	200.000000
LUpperArm         0.000000	200.000000	0.000000	10.837043	12.737179	14.309854	300.000000
LLowerArm         0.000000	300.000000	0.000000	2.090205	2.175812	1.895763	200.000000
LHand             0.000000	200.000000	0.000000	-1.396534	-1.768569	8.793625	120.000000
RClavicle         0.000000	100.000000	0.000000	1.262055	-3.879913	108.124298	200.000000
RUpperArm         0.000000	200.000000	0.000000	10.866823	4.985308	-18.992585	300.000000
RLowerArm         0.000000	300.000000	0.000000	5.968673	-3.682026	-7.348670	200.000000
RHand             0.000000	200.000000	0.000000	-1.057110	-1.690862	-7.465634	120.000000
RUpperLeg         -115.911102	-10.000000	31.058285	24.909801	27.531946	-169.439912	530.000000
RLowerLeg         0.000000	530.000000	0.000000	-7.321572	0.479387	-2.520024	460.000000
RFoot             0.000000	460.000000	0.000000	82.352420	-1.863170	1.930421	130.000000
RToes             0.000000	130.000000	0.000000	17.737744	0.005479	-0.002881	100.000000
LUpperLeg         115.911102	-10.000000	31.058285	23.717246	9.590578	-171.144790	530.000000
LLowerLeg         0.000000	530.000000	0.000000	-5.150575	-3.275937	3.046484	460.000000
LFoot             0.000000	460.000000	0.000000	77.933010	-13.262104	9.769004	130.000000
LToes             0.000000	130.000000	0.000000	27.000770	-0.000000	-0.000086	100.000000
#Beginning of Data.
[DaveRoot]
#Fr	Tx	Ty	Tz	Rx	Ry	Rz	SF
986	-1167.502037	-128.926389	150.489591	144.224653	-12.799970	7.971854	1.000000	
987	-1182.772949	-132.782106	151.321183	143.758301	-11.591992	9.464366	1.000000	
988	-1197.231466	-136.519589	152.091123	143.325243	-10.317597	10.849995	1.000000	
989	-1210.921774	-139.969450	152.700848	142.892065	-8.989713	12.192642	1.000000	
990	-1223.944499	-142.998946	153.087011	142.445079	-7.634677	13.549063	1.000000	
[Spine1]
#Fr	Tx	Ty	Tz	Rx	Ry	Rz	SF
986	0.000000	0.000000	0.000000	0.554191	-6.005252	-5.137715	1.000000	
987	0.000000	0.000000	0.000000	0.548127	-6.031825	-4.888416	1.000000	
988	0.000000	0.000000	0.000000	0.540716	-6.065681	-4.608626	1.000000	
989	0.000000	0.000000	0.000000	0.539424	-6.118568	-4.290992	1.000000	
990	0.000000	0.000000	0.000000	0.548115	-6.199857	-3.935474	1.000000	
[Spine2]
#Fr	Tx	Ty	Tz	Rx	Ry	Rz	SF
986	0.000000	0.000000	0.000000	0.554191	-6.005252	-5.137715	1.000000	
987	0.000000	0.000000	0.000000	0.548127	-6.031825	-4.888416	1.000000	
988	0.000000	0.000000	0.000000	0.540716	-6.065681	-4.608626	1.000000	
989	0.000000	0.000000	0.000000	0.539424	-6.118568	-4.290992	1.000000	
990	0.000000	0.000000	0.000000	0.548115	-6.199857	-3.935474	1.000000	
[Spine3]
#Fr	Tx	Ty	Tz	Rx	Ry	Rz	SF
986	0.000000	0.000000	0.000000	0.554191	-6.005252	-5.137715	1.000000	
987	0.000000	0.000000	0.000000	0.548127	-6.031825	-4.888416	1.000000	
988	0.000000	0.000000	0.000000	0.540716	-6.065681	-4.608626	1.000000	
989	0.000000	0.000000	0.000000	0.539424	-6.118568	-4.290992	1.000000	
990	0.000000	0.000000	0.000000	0.548115	-6.199857	-3.935474	1.000000	
[Spine4]
#Fr	Tx	Ty	Tz	Rx	Ry	Rz	SF
986	0.000000	0.000000	0.000000	0.554191	-6.005252	-5.137715	1.000000	
987	0.000000	0.000000	0.000000	0.548127	-6.031825	-4.888416	1.000000	
988	0.000000	0.000000	0.000000	0.540716	-6.065681	-4.608626	1.000000	
989	0.000000	0.000000	0.000000	0.539424	-6.118568	-4.290992	1.000000	
990	0.000000	0.000000	0.000000	0.548115	-6.199857	-3.935474	1.000000	
[Neck]
#Fr	Tx	Ty	Tz	Rx	Ry	Rz	SF
986	0.000000	0.000000	0.000000	-21.781575	-12.581840	3.152817	1.000000	
987	0.000000	0.000000	0.000000	-21.159616	-12.538365	3.067571	1.000000	
988	0.000000	0.000000	0.000000	-20.551759	-12.418978	2.954993	1.000000	
989	0.000000	0.000000	0.000000	-19.925752	-12.228226	2.810548	1.000000	
990	0.000000	0.000000	0.000000	-19.261271	-11.972981	2.634195	1.000000	
[Head]
#Fr	Tx	Ty	Tz	Rx	Ry	Rz	SF
986	0.000000	0.000000	0.000000	-21.781575	-12.581840	3.152817	1.000000	
987	0.000000	0.000000	0.000000	-21.159616	-12.538365	3.067571	1.000000	
988	0.000000	0.000000	0.000000	-20.551759	-12.418978	2.954993	1.000000	
989	0.000000	0.000000	0.000000	-19.925752	-12.228226	2.810548	1.000000	
990	0.000000	0.000000	0.000000	-19.261271	-11.972981	2.634195	1.000000	
[LClavicle]
#Fr	Tx	Ty	Tz	Rx	Ry	Rz	SF
986	0.000000	0.000000	0.000000	-5.779052	1.721567	11.615257	1.000000	
987	0.000000	0.000000	0.000000	-5.284000	1.580902	11.691995	1.000000	
988	0.000000	0.000000	0.000000	-4.848545	1.437784	11.560370	1.000000	
989	0.000000	0.000000	0.000000	-4.410661	1.285107	11.294660	1.000000	
990	0.000000	0.000000	0.000000	-3.922118	1.119616	10.989591	1.000000	
[LUpperArm]
#Fr	Tx	Ty	Tz	Rx	Ry	Rz	SF
986	0.000000	0.000000	0.000000	18.431470	34.708601	95.938607	1.000000	
987	0.000000	0.000000	0.000000	19.521703	36.099315	96.436813	1.000000	
988	0.000000	0.000000	0.000000	20.551976	37.293217	96.943060	1.000000	
989	0.000000	0.000000	0.000000	21.539673	38.261534	97.374337	1.000000	
990	0.000000	0.000000	0.000000	22.490614	38.984131	97.647214	1.000000	
[LLowerArm]
#Fr	Tx	Ty	Tz	Rx	Ry	Rz	SF
986	0.000000	0.000000	0.000000	-39.442024	-0.000000	0.000000	1.000000	
987	0.000000	0.000000	0.000000	-39.378110	-0.000000	0.000000	1.000000	
988	0.000000	0.000000	0.000000	-39.201970	-0.000000	0.000000	1.000000	
989	0.000000	0.000000	0.000000	-38.951009	-0.000000	0.000000	1.000000	
990	0.000000	0.000000	0.000000	-38.665539	0.000000	0.000000	1.000000	
[LHand]
#Fr	Tx	Ty	Tz	Rx	Ry	Rz	SF
986	0.000000	0.000000	0.000000	17.561047	0.000000	-0.000000	1.000000	
987	0.000000	0.000000	0.000000	18.002497	0.000000	-0.000000	1.000000	
988	0.000000	0.000000	0.000000	18.319904	0.000000	-0.000000	1.000000	
989	0.000000	0.000000	0.000000	18.560962	0.000000	-0.000000	1.000000	
990	0.000000	0.000000	0.000000	18.785405	0.000000	-0.000000	1.000000	
[RClavicle]
#Fr	Tx	Ty	Tz	Rx	Ry	Rz	SF
986	0.000000	0.000000	0.000000	0.841439	-0.177912	11.612526	1.000000	
987	0.000000	0.000000	0.000000	1.422988	-0.308602	11.908443	1.000000	
988	0.000000	0.000000	0.000000	2.013942	-0.447668	12.201828	1.000000	
989	0.000000	0.000000	0.000000	2.623127	-0.593763	12.420264	1.000000	
990	0.000000	0.000000	0.000000	3.246278	-0.739810	12.499274	1.000000	
[RUpperArm]
#Fr	Tx	Ty	Tz	Rx	Ry	Rz	SF
986	0.000000	0.000000	0.000000	12.417757	20.684605	-43.095699	1.000000	
987	0.000000	0.000000	0.000000	13.120978	21.028449	-42.049591	1.000000	
988	0.000000	0.000000	0.000000	13.732594	21.456521	-41.165230	1.000000	
989	0.000000	0.000000	0.000000	14.185894	21.975084	-40.383986	1.000000	
990	0.000000	0.000000	0.000000	14.451622	22.575147	-39.637214	1.000000	
[RLowerArm]
#Fr	Tx	Ty	Tz	Rx	Ry	Rz	SF
986	0.000000	0.000000	0.000000	-6.421758	-0.000000	-0.000000	1.000000	
987	0.000000	0.000000	0.000000	-5.985383	-0.000000	-0.000000	1.000000	
988	0.000000	0.000000	0.000000	-5.219041	-0.000000	-0.000000	1.000000	
989	0.000000	0.000000	0.000000	-3.997922	-0.000000	-0.000000	1.000000	
990	0.000000	0.000000	0.000000	-2.305040	-0.000000	-0.000000	1.000000	
[RHand]
#Fr	Tx	Ty	Tz	Rx	Ry	Rz	SF
986	0.000000	0.000000	0.000000	-5.738999	-10.173622	-25.915271	1.000000	
987	0.000000	0.000000	0.000000	-5.763865	-11.037230	-27.505626	1.000000	
988	0.000000	0.000000	0.000000	-5.812054	-11.834271	-29.056721	1.000000	
989	0.000000	0.000000	0.000000	-5.882153	-12.676278	-30.451430	1.000000	
990	0.000000	0.000000	0.000000	-5.958243	-13.650567	-31.576193	1.000000	
[RUpperLeg]
#Fr	Tx	Ty	Tz	Rx	Ry	Rz	SF
986	0.000000	0.000000	0.000000	-9.449621	-27.959206	-11.373317	1.000000	
987	0.000000	0.000000	0.000000	-8.903944	-28.304588	-11.810381	1.000000	
988	0.000000	0.000000	0.000000	-8.331881	-28.929183	-12.221916	1.000000	
989	0.000000	0.000000	0.000000	-7.796147	-29.765024	-12.588059	1.000000	
990	0.000000	0.000000	0.000000	-7.333402	-30.736686	-12.900654	1.000000	
[RLowerLeg]
#Fr	Tx	Ty	Tz	Rx	Ry	Rz	SF
986	0.000000	0.000000	0.000000	-66.187606	0.000000	-0.000000	1.000000	
987	0.000000	0.000000	0.000000	-66.367166	-0.000000	-0.000000	1.000000	
988	0.000000	0.000000	0.000000	-66.436905	0.000000	-0.000000	1.000000	
989	0.000000	0.000000	0.000000	-66.370532	-0.000000	-0.000000	1.000000	
990	0.000000	0.000000	0.000000	-66.159725	0.000000	-0.000000	1.000000	
[RFoot]
#Fr	Tx	Ty	Tz	Rx	Ry	Rz	SF
986	0.000000	0.000000	0.000000	4.132256	1.613515	-21.370981	1.000000	
987	0.000000	0.000000	0.000000	4.424693	1.592623	-21.876455	1.000000	
988	0.000000	0.000000	0.000000	4.713124	1.402077	-22.265737	1.000000	
989	0.000000	0.000000	0.000000	4.955882	1.122884	-22.504720	1.000000	
990	0.000000	0.000000	0.000000	5.128143	0.843844	-22.583388	1.000000	
[RToes]
#Fr	Tx	Ty	Tz	Rx	Ry	Rz	SF
986	0.000000	0.000000	0.000000	-1.597250	0.000000	0.000000	1.000000	
987	0.000000	0.000000	0.000000	-1.923741	0.000000	0.000000	1.000000	
988	0.000000	0.000000	0.000000	-2.173415	0.000000	0.000000	1.000000	
989	0.000000	0.000000	0.000000	-2.350011	0.000000	0.000000	1.000000	
990	0.000000	0.000000	0.000000	-2.481122	0.000000	0.000000	1.000000	
[LUpperLeg]
#Fr	Tx	Ty	Tz	Rx	Ry	Rz	SF
986	0.000000	0.000000	0.000000	35.456474	-6.664393	64.917100	1.000000	
987	0.000000	0.000000	0.000000	33.685422	-6.297683	64.137991	1.000000	
988	0.000000	0.000000	0.000000	31.812034	-5.937953	63.357629	1.000000	
989	0.000000	0.000000	0.000000	29.902636	-5.606787	62.596742	1.000000	
990	0.000000	0.000000	0.000000	28.029928	-5.329463	61.865221	1.000000	
[LLowerLeg]
#Fr	Tx	Ty	Tz	Rx	Ry	Rz	SF
986	0.000000	0.000000	0.000000	-89.442133	0.000000	0.000000	1.000000	
987	0.000000	0.000000	0.000000	-89.777663	0.000000	0.000000	1.000000	
988	0.000000	0.000000	0.000000	-90.158443	0.000000	0.000000	1.000000	
989	0.000000	0.000000	0.000000	-90.597394	-0.000000	-0.000000	1.000000	
990	0.000000	0.000000	0.000000	-91.099700	0.000000	0.000000	1.000000	
[LFoot]
#Fr	Tx	Ty	Tz	Rx	Ry	Rz	SF
986	0.000000	0.000000	0.000000	12.704793	3.001291	17.003560	1.000000	
987	0.000000	0.000000	0.000000	12.336114	2.814730	17.043964	1.000000	
988	0.000000	0.000000	0.000000	11.984124	2.551342	17.183874	1.000000	
989	0.000000	0.000000	0.000000	11.715766	2.182194	17.439894	1.000000	
990	0.000000	0.000000	0.000000	11.565148	1.692292	17.808771	1.000000	
[LToes]
#Fr	Tx	Ty	Tz	Rx	Ry	Rz	SF
986	0.000000	0.000000	0.000000	0.637294	-0.000000	-0.000000	1.000000	
987	0.000000	0.000000	0.000000	0.945942	-0.000000	-0.000000	1.000000	
988	0.000000	0.000000	0.000000	1.026325	-0.000000	-0.000000	1.000000	
989	0.000000	0.000000	0.000000	0.846590	-0.000000	-0.000000	1.000000	
990	0.000000	0.000000	0.000000	0.419463	-0.000000	-0.000000	1.000000	
